<mxfile host="app.diagrams.net" modified="2024-01-28T11:22:20.439Z" agent="Mozilla/5.0 (Windows NT 10.0; Win64; x64) AppleWebKit/537.36 (KHTML, like Gecko) Chrome/120.0.0.0 Safari/537.36" version="22.1.21" etag="wVVvqtf1-uhe4TMGK9yX" type="github">
  <diagram name="Страница — 1" id="8XuAO4_db3apzx096d72">
    <mxGraphModel>
      <root>
        <mxCell id="0" />
        <mxCell id="1" parent="0" />
      </root>
    </mxGraphModel>
  </diagram>
</mxfile>
